<?xml version="1.0" standalone="no"?>
<!DOCTYPE svg PUBLIC "-//W3C//DTD SVG 20010904//EN"
 "http://www.w3.org/TR/2001/REC-SVG-20010904/DTD/svg10.dtd">
<svg version="1.0" xmlns="http://www.w3.org/2000/svg"
 width="1024.000000pt" height="1024.000000pt" viewBox="0 0 1024.000000 1024.000000"
 preserveAspectRatio="xMidYMid meet">
<metadata>
Created by potrace 1.14, written by Peter Selinger 2001-2017
</metadata>
<g transform="translate(0.000000,1024.000000) scale(0.100000,-0.100000)"
fill="#000000" stroke="none">
<path d="M3597 9244 c-4 -4 -150 -9 -325 -10 -315 -2 -473 -9 -642 -28 -179
-21 -401 -78 -540 -138 -144 -63 -356 -193 -444 -273 -21 -19 -43 -32 -50 -28
-6 3 -8 3 -4 -2 4 -4 -33 -51 -83 -104 -50 -52 -118 -134 -151 -181 -33 -47
-64 -84 -68 -83 -5 2 -7 -3 -4 -10 2 -7 -8 -33 -24 -57 -15 -25 -41 -72 -57
-105 -15 -33 -31 -62 -34 -65 -3 -3 -6 -9 -7 -15 -1 -25 -17 -65 -26 -65 -5 0
-7 -4 -4 -8 10 -16 -27 -113 -41 -108 -10 4 -10 1 0 -16 9 -16 9 -22 -1 -25
-6 -3 -10 -8 -8 -12 4 -6 -2 -35 -29 -157 -3 -11 -6 -37 -7 -57 -2 -20 -5 -37
-8 -37 -3 0 -5 -10 -6 -22 0 -13 -4 -63 -8 -113 -11 -118 -14 -186 -16 -322
-2 -82 -5 -111 -14 -106 -8 5 -8 3 0 -8 13 -16 12 -137 -1 -158 -5 -8 -4 -12
1 -8 5 3 8 -40 6 -101 -1 -59 -2 -165 -3 -237 0 -84 -4 -134 -12 -144 -8 -9
-8 -12 -1 -8 17 10 18 -211 2 -231 -10 -13 -10 -14 0 -8 17 10 17 -95 0 -113
-10 -11 -10 -13 0 -7 9 5 12 -6 12 -46 0 -30 -6 -60 -12 -67 -10 -11 -10 -13
0 -7 9 5 12 -6 12 -46 0 -30 -6 -60 -12 -67 -9 -9 -9 -12 -1 -7 17 9 17 -572
0 -593 -9 -12 -9 -13 0 -7 18 10 18 -95 1 -113 -10 -11 -10 -13 0 -7 17 10 17
-95 0 -113 -10 -11 -10 -13 0 -7 17 10 17 -95 0 -113 -9 -9 -9 -12 -1 -7 10 6
16 -267 13 -604 -1 -88 -1 -97 1 -235 0 -58 0 -108 -1 -112 -1 -5 -1 -12 0
-18 8 -32 4 -152 -5 -164 -8 -11 -7 -13 3 -7 11 7 12 4 3 -13 -7 -11 -8 -21
-3 -21 4 0 8 -9 8 -20 0 -11 -5 -20 -11 -20 -5 0 -3 -5 5 -10 13 -9 13 -11 0
-20 -8 -5 -10 -10 -5 -10 13 0 14 -193 0 -202 -6 -5 -5 -8 4 -8 11 0 11 -3 0
-17 -12 -14 -12 -15 -1 -9 11 7 12 4 3 -13 -7 -11 -8 -21 -4 -21 5 0 9 -22 9
-50 0 -29 -4 -50 -10 -50 -7 0 -8 -3 -1 -8 14 -10 14 -65 1 -74 -8 -6 -8 -8 0
-8 16 0 17 -100 1 -119 -9 -12 -9 -13 1 -7 9 5 12 -10 13 -66 0 -40 2 -93 4
-118 2 -25 6 -78 9 -119 3 -40 9 -77 12 -82 3 -5 -1 -9 -8 -9 -8 0 -9 -3 -3
-8 6 -4 12 -20 13 -37 1 -16 6 -54 12 -84 6 -29 9 -60 6 -68 -3 -8 -2 -12 3
-9 13 9 20 -41 7 -55 -8 -9 -8 -10 1 -5 14 8 29 -36 18 -53 -3 -6 -2 -11 3
-11 9 0 27 -62 25 -87 0 -7 2 -13 6 -13 4 0 13 -17 20 -37 26 -77 115 -267
142 -302 10 -13 17 -27 14 -30 -2 -4 5 -14 16 -21 10 -8 19 -20 19 -26 0 -6 7
-17 15 -24 16 -14 10 -34 -7 -24 -7 4 -8 2 -4 -4 4 -6 13 -9 20 -6 16 6 59
-49 48 -61 -4 -5 -2 -5 5 -1 12 6 40 -31 35 -47 -1 -4 2 -6 7 -5 4 2 29 -19
55 -45 45 -48 57 -65 34 -51 -7 5 -8 3 -4 -5 5 -7 10 -10 13 -7 9 9 43 -14 43
-29 0 -8 5 -15 10 -15 6 0 43 -27 83 -60 41 -33 77 -60 81 -60 14 0 35 -28 28
-36 -4 -5 -3 -6 2 -2 8 6 93 -36 106 -52 3 -4 20 -13 38 -21 17 -8 32 -17 32
-21 0 -5 3 -7 8 -7 19 3 33 -3 53 -23 12 -13 19 -18 15 -11 -5 10 47 -8 144
-50 14 -6 30 -11 35 -12 11 0 89 -23 115 -33 17 -6 28 -9 48 -11 8 -1 10 -6 6
-13 -5 -9 -2 -9 9 1 9 7 17 9 17 4 0 -6 14 -9 31 -7 16 2 28 0 25 -5 -3 -4 6
-6 21 -3 21 4 25 2 20 -11 -3 -9 -2 -19 4 -22 5 -4 9 -3 8 2 -4 24 2 35 14 25
6 -6 27 -9 45 -8 23 2 32 -2 33 -13 0 -11 2 -12 6 -3 2 6 14 12 26 12 18 0 19
-2 7 -10 -9 -6 -10 -10 -3 -10 6 0 15 5 18 10 4 6 11 8 16 4 6 -3 34 -7 62 -9
29 -2 58 -4 65 -4 8 -1 10 -6 6 -13 -6 -10 -5 -10 7 -1 21 17 92 14 85 -3 -3
-7 -1 -16 5 -19 5 -4 9 -3 8 2 -3 19 2 33 12 33 5 0 7 -5 3 -12 -5 -7 -3 -8 7
-2 19 11 69 12 62 1 -3 -5 5 -6 18 -2 12 4 48 7 78 6 31 -1 86 -2 124 -2 48
-1 65 -4 60 -12 -5 -9 -3 -9 8 -1 17 13 178 13 198 0 9 -6 12 -5 8 1 -8 13 91
11 112 -1 9 -6 12 -5 8 1 -8 12 332 11 352 -1 9 -6 12 -5 8 1 -8 13 91 11 112
-1 9 -6 12 -5 8 1 -8 13 171 12 192 -1 9 -6 12 -5 8 1 -8 13 91 11 112 -1 9
-6 12 -5 8 2 -9 13 171 11 192 -2 9 -6 12 -5 8 1 -8 13 91 11 112 -1 9 -6 12
-5 8 1 -8 13 171 12 192 -1 9 -6 12 -5 8 1 -8 13 91 11 112 -1 9 -6 12 -5 7 2
-8 13 91 11 113 -2 9 -6 12 -5 8 1 -8 13 211 12 232 -1 9 -6 12 -5 8 1 -8 13
91 11 112 -1 9 -6 12 -5 8 1 -11 18 196 11 219 -7 18 -14 18 -14 5 3 -12 15
-11 17 8 17 12 0 20 -4 16 -9 -3 -5 -1 -13 5 -16 6 -4 9 -1 8 6 -2 7 12 14 36
16 24 3 36 1 32 -6 -4 -5 -2 -13 4 -16 6 -4 9 -1 8 6 -2 7 12 14 36 16 24 3
36 1 32 -6 -4 -5 -2 -13 4 -16 6 -4 9 -1 8 6 -2 7 12 14 36 16 24 3 36 1 32
-6 -4 -5 -2 -13 4 -16 6 -4 9 -1 8 7 -4 16 70 19 91 4 11 -8 13 -8 8 0 -8 14
210 13 232 0 9 -6 12 -5 8 1 -8 13 211 12 232 -1 10 -6 12 -5 7 2 -5 9 13 12
64 12 41 0 69 -4 65 -9 -3 -5 -1 -13 5 -16 6 -4 9 -1 8 6 -2 7 12 14 36 16 24
3 36 1 32 -6 -4 -5 -2 -13 4 -16 6 -4 9 -1 8 7 -2 10 18 13 92 13 92 0 95 -1
94 -22 -1 -13 2 -20 7 -18 4 3 6 14 4 25 -3 16 1 19 31 16 19 -1 34 1 34 6 0
4 7 5 15 2 8 -4 12 -11 8 -18 -3 -6 2 -3 13 6 16 14 23 15 32 6 9 -9 12 -9 12
1 0 11 3 11 17 0 9 -8 14 -9 11 -4 -4 6 2 11 12 11 10 0 16 -5 12 -11 -4 -6
-1 -6 9 1 17 12 48 12 68 0 10 -6 12 -5 7 2 -5 8 1 12 14 12 14 0 19 -4 14
-12 -6 -10 -5 -10 7 -1 18 15 118 21 138 9 10 -6 12 -5 7 2 -5 8 4 12 26 13
60 2 93 6 115 13 19 6 22 4 17 -11 -6 -16 -5 -15 9 2 9 11 17 16 17 11 0 -5 6
-4 13 2 7 6 25 9 40 8 15 -2 27 0 27 4 0 7 106 26 123 22 4 -1 7 2 7 6 0 5 6
9 13 10 6 0 23 3 37 7 14 4 31 7 38 7 6 1 12 5 12 9 0 4 13 6 30 5 17 -1 32 4
34 11 3 7 9 12 13 11 4 -1 17 3 28 9 11 6 23 12 27 12 4 1 24 9 43 17 20 8 41
12 47 8 7 -4 8 -3 4 4 -6 11 6 16 27 13 4 0 7 3 7 7 0 13 50 33 62 26 7 -4 8
-2 4 4 -8 14 30 36 46 26 7 -4 8 -3 4 4 -4 7 4 17 21 24 15 7 33 17 39 23 6 5
22 17 34 25 38 26 125 94 132 105 4 5 8 7 8 3 0 -3 35 29 77 73 43 44 83 77
90 75 7 -3 10 1 6 10 -3 9 9 28 30 49 20 19 33 35 29 35 -4 0 -2 4 3 8 6 4 28
33 49 64 21 32 43 55 47 52 5 -3 6 3 2 12 -4 11 -3 15 5 10 6 -3 14 -1 18 5 4
8 3 9 -4 5 -19 -12 -14 8 12 43 13 18 30 45 36 62 7 16 16 27 19 24 4 -2 7 6
7 18 -1 15 4 22 17 21 13 -2 15 1 7 11 -8 9 -8 15 0 20 6 3 8 10 5 15 -3 5 -1
11 5 15 5 3 10 15 10 25 0 10 8 24 18 29 13 8 13 10 2 11 -11 0 -11 3 -2 12 7
7 12 20 12 31 0 10 4 15 10 12 5 -3 7 0 4 9 -3 8 -2 21 2 28 5 7 10 19 11 25
7 30 12 48 13 51 2 1 3 5 4 10 1 4 6 23 11 42 4 19 9 44 11 55 1 11 3 20 4 20
2 0 7 27 15 81 3 22 8 52 10 65 3 14 6 46 7 72 2 26 5 47 8 47 3 0 6 24 6 53
5 179 7 216 16 211 6 -4 5 2 -1 13 -9 18 -8 58 4 91 2 6 1 12 -3 12 -5 0 -7
15 -5 33 2 17 3 302 4 632 0 440 4 604 12 614 9 12 9 13 0 7 -18 -10 -18 95
-1 113 10 11 10 13 1 7 -18 -10 -18 95 -1 113 10 11 10 13 1 7 -10 -5 -13 6
-13 46 0 30 6 60 13 67 7 9 8 12 0 7 -16 -9 -17 893 0 913 9 12 9 13 0 7 -18
-10 -18 95 0 113 10 11 10 13 0 7 -10 -5 -13 6 -13 46 0 30 6 60 13 67 9 11 9
13 0 7 -10 -5 -13 6 -13 46 0 30 6 60 13 67 7 9 8 11 0 7 -8 -4 -12 126 -13
521 -2 565 -2 558 4 588 2 11 -1 28 -6 39 -7 14 -7 16 2 11 9 -6 9 -2 0 14 -6
13 -8 27 -3 34 10 15 10 38 -1 56 -5 8 -4 16 4 21 7 4 8 9 2 11 -5 2 -12 58
-16 124 -4 66 -10 146 -15 178 -4 32 -7 71 -7 86 1 16 -2 27 -5 25 -4 -2 -10
22 -15 54 -9 64 -11 75 -14 82 -1 3 -3 12 -5 20 -22 87 -47 166 -68 219 -15
35 -24 67 -21 72 3 5 2 9 -3 9 -8 0 -69 122 -64 129 1 2 -2 7 -7 10 -5 3 -20
25 -33 48 -55 98 -161 234 -259 332 -57 59 -103 110 -102 114 1 5 -2 6 -6 3
-5 -3 -22 6 -38 20 -16 14 -50 39 -76 56 -27 17 -48 36 -48 41 0 6 -3 8 -6 4
-3 -3 -29 9 -57 27 -134 86 -358 175 -528 212 -66 14 -189 34 -239 40 -30 3
-68 8 -85 10 -69 9 -392 18 -702 18 -183 1 -333 5 -333 9 0 4 -8 4 -17 0 -14
-7 -216 -8 -348 -2 -30 1 -1478 0 -1635 -1 -74 -1 -141 -1 -147 -1 -7 0 -30 0
-50 0 -21 0 -72 1 -113 1 -41 0 -79 1 -85 1 -211 -5 -486 -4 -488 2 -1 5 -6 5
-10 1z"/>
<path d="M990 7399 c0 -5 5 -7 10 -4 6 3 10 8 10 11 0 2 -4 4 -10 4 -5 0 -10
-5 -10 -11z"/>
<path d="M916 6122 c-3 -5 1 -9 9 -9 8 0 12 4 9 9 -3 4 -7 8 -9 8 -2 0 -6 -4
-9 -8z"/>
<path d="M936 4482 c-3 -5 1 -9 9 -9 8 0 12 4 9 9 -3 4 -7 8 -9 8 -2 0 -6 -4
-9 -8z"/>
<path d="M9270 3201 c0 -6 4 -13 10 -16 6 -3 7 1 4 9 -7 18 -14 21 -14 7z"/>
<path d="M950 2760 c0 -5 5 -10 11 -10 5 0 7 5 4 10 -3 6 -8 10 -11 10 -2 0
-4 -4 -4 -10z"/>
<path d="M995 2681 c-3 -5 -2 -12 3 -15 5 -3 9 1 9 9 0 17 -3 19 -12 6z"/>
<path d="M1293 1775 c0 -8 4 -12 9 -9 5 3 6 10 3 15 -9 13 -12 11 -12 -6z"/>
<path d="M8916 1762 c-3 -5 1 -9 9 -9 8 0 12 4 9 9 -3 4 -7 8 -9 8 -2 0 -6 -4
-9 -8z"/>
<path d="M8720 1540 c-9 -6 -10 -10 -3 -10 6 0 15 5 18 10 8 12 4 12 -15 0z"/>
<path d="M8676 1487 c3 -10 9 -15 12 -12 3 3 0 11 -7 18 -10 9 -11 8 -5 -6z"/>
<path d="M8747 1479 c7 -7 15 -10 18 -7 3 3 -2 9 -12 12 -14 6 -15 5 -6 -5z"/>
<path d="M1535 1461 c-3 -5 -2 -12 3 -15 5 -3 9 1 9 9 0 17 -3 19 -12 6z"/>
<path d="M1615 1420 c3 -5 8 -10 11 -10 2 0 4 5 4 10 0 6 -5 10 -11 10 -5 0
-7 -4 -4 -10z"/>
<path d="M8635 1409 c-4 -6 -5 -12 -2 -15 2 -3 7 2 10 11 7 17 1 20 -8 4z"/>
<path d="M1710 1360 c0 -5 5 -10 11 -10 5 0 7 5 4 10 -3 6 -8 10 -11 10 -2 0
-4 -4 -4 -10z"/>
<path d="M8555 1341 c-3 -5 -2 -12 3 -15 5 -3 9 1 9 9 0 17 -3 19 -12 6z"/>
<path d="M1810 1259 c0 -5 5 -7 10 -4 6 3 10 8 10 11 0 2 -4 4 -10 4 -5 0 -10
-5 -10 -11z"/>
<path d="M8353 1245 c0 -8 4 -12 9 -9 5 3 6 10 3 15 -9 13 -12 11 -12 -6z"/>
<path d="M1756 1238 c3 -5 10 -6 15 -3 13 9 11 12 -6 12 -8 0 -12 -4 -9 -9z"/>
<path d="M8436 1242 c-3 -5 1 -9 9 -9 8 0 12 4 9 9 -3 4 -7 8 -9 8 -2 0 -6 -4
-9 -8z"/>
<path d="M8295 1200 c2 -27 10 -33 12 -10 1 11 -2 22 -6 24 -4 3 -7 -4 -6 -14z"/>
<path d="M1947 1199 c7 -7 15 -10 18 -7 3 3 -2 9 -12 12 -14 6 -15 5 -6 -5z"/>
<path d="M1915 1189 c-4 -6 -5 -12 -2 -15 2 -3 7 2 10 11 7 17 1 20 -8 4z"/>
<path d="M2053 1145 c0 -8 4 -12 9 -9 5 3 6 10 3 15 -9 13 -12 11 -12 -6z"/>
<path d="M2010 1140 c0 -5 5 -10 11 -10 5 0 7 5 4 10 -3 6 -8 10 -11 10 -2 0
-4 -4 -4 -10z"/>
<path d="M8206 1138 c3 -5 10 -6 15 -3 13 9 11 12 -6 12 -8 0 -12 -4 -9 -9z"/>
<path d="M8256 1138 c3 -4 11 -5 19 -1 21 7 19 12 -4 10 -11 0 -18 -5 -15 -9z"/>
<path d="M2135 1129 c-4 -6 -5 -12 -2 -15 2 -3 7 2 10 11 7 17 1 20 -8 4z"/>
<path d="M8136 1127 c3 -10 9 -15 12 -12 3 3 0 11 -7 18 -10 9 -11 8 -5 -6z"/>
<path d="M8175 1099 c-3 -4 2 -6 10 -5 21 3 28 13 10 13 -9 0 -18 -4 -20 -8z"/>
<path d="M8106 1082 c-3 -5 1 -9 9 -9 8 0 12 4 9 9 -3 4 -7 8 -9 8 -2 0 -6 -4
-9 -8z"/>
<path d="M2174 1062 c4 -3 14 -7 22 -8 9 -1 13 0 10 4 -4 3 -14 7 -22 8 -9 1
-13 0 -10 -4z"/>
<path d="M2349 1043 c-13 -16 -12 -17 4 -4 16 13 21 21 13 21 -2 0 -10 -8 -17
-17z"/>
<path d="M7950 1056 c0 -2 8 -10 18 -17 15 -13 16 -12 3 4 -13 16 -21 21 -21
13z"/>
<path d="M7813 1031 c0 -11 5 -18 9 -15 4 3 5 11 1 19 -7 21 -12 19 -10 -4z"/>
<path d="M7535 1000 c-2 -3 5 -6 15 -7 11 -1 22 2 24 5 3 4 -4 8 -15 8 -11 0
-22 -3 -24 -6z"/>
<path d="M2456 982 c-3 -5 1 -9 9 -9 8 0 12 4 9 9 -3 4 -7 8 -9 8 -2 0 -6 -4
-9 -8z"/>
<path d="M3229 978 c7 -9 9 -23 5 -30 -6 -10 -4 -11 7 0 11 10 10 15 -6 30
-17 15 -18 15 -6 0z"/>
<path d="M6704 982 c4 -3 14 -7 22 -8 9 -1 13 0 10 4 -4 3 -14 7 -22 8 -9 1
-13 0 -10 -4z"/>
<path d="M7270 978 c0 -4 4 -8 9 -8 6 0 12 4 15 8 3 5 -1 9 -9 9 -8 0 -15 -4
-15 -9z"/>
<path d="M7735 980 c3 -5 8 -10 11 -10 2 0 4 5 4 10 0 6 -5 10 -11 10 -5 0 -7
-4 -4 -10z"/>
<path d="M3195 970 c-4 -6 -11 -7 -17 -4 -7 4 -8 2 -4 -5 6 -9 11 -9 22 0 14
11 18 19 10 19 -3 0 -8 -5 -11 -10z"/>
<path d="M3656 967 c3 -10 9 -15 12 -12 3 3 0 11 -7 18 -10 9 -11 8 -5 -6z"/>
<path d="M3735 971 c-3 -5 -2 -12 3 -15 5 -3 9 1 9 9 0 17 -3 19 -12 6z"/>
<path d="M3855 969 c-4 -6 -5 -12 -2 -15 2 -3 7 2 10 11 7 17 1 20 -8 4z"/>
<path d="M4495 969 c-4 -6 -5 -12 -2 -15 2 -3 7 2 10 11 7 17 1 20 -8 4z"/>
<path d="M5573 965 c0 -8 4 -12 9 -9 5 3 6 10 3 15 -9 13 -12 11 -12 -6z"/>
<path d="M5655 971 c-3 -5 -2 -12 3 -15 5 -3 9 1 9 9 0 17 -3 19 -12 6z"/>
<path d="M6170 976 c0 -2 8 -10 18 -17 15 -13 16 -12 3 4 -13 16 -21 21 -21
13z"/>
<path d="M6249 963 c-13 -16 -12 -17 4 -4 9 7 17 15 17 17 0 8 -8 3 -21 -13z"/>
<path d="M6495 969 c-4 -6 -5 -12 -2 -15 2 -3 7 2 10 11 7 17 1 20 -8 4z"/>
<path d="M6955 971 c-3 -5 -2 -12 3 -15 5 -3 9 1 9 9 0 17 -3 19 -12 6z"/>
<path d="M7595 969 c-4 -6 -5 -12 -2 -15 2 -3 7 2 10 11 7 17 1 20 -8 4z"/>
<path d="M2996 962 c-3 -5 1 -9 9 -9 8 0 12 4 9 9 -3 4 -7 8 -9 8 -2 0 -6 -4
-9 -8z"/>
<path d="M3033 955 c0 -8 4 -12 9 -9 4 3 8 9 8 15 0 5 -4 9 -8 9 -5 0 -9 -7
-9 -15z"/>
<path d="M3067 959 c7 -7 15 -10 18 -7 3 3 -2 9 -12 12 -14 6 -15 5 -6 -5z"/>
<path d="M3815 960 c3 -5 8 -10 11 -10 2 0 4 5 4 10 0 6 -5 10 -11 10 -5 0 -7
-4 -4 -10z"/>
<path d="M5244 958 c-4 -7 -3 -8 5 -4 6 4 20 2 29 -6 15 -12 16 -11 3 5 -16
20 -27 22 -37 5z"/>
<path d="M5735 960 c3 -5 8 -10 11 -10 2 0 4 5 4 10 0 6 -5 10 -11 10 -5 0 -7
-4 -4 -10z"/>
<path d="M6101 956 c-9 -11 -9 -16 1 -22 7 -4 10 -4 6 1 -4 4 -3 14 3 22 6 7
9 13 6 13 -2 0 -10 -6 -16 -14z"/>
<path d="M6455 960 c3 -5 8 -10 11 -10 2 0 4 5 4 10 0 6 -5 10 -11 10 -5 0 -7
-4 -4 -10z"/>
<path d="M6990 956 c7 -7 13 -7 20 0 6 6 3 10 -10 10 -13 0 -16 -4 -10 -10z"/>
<path d="M7166 958 c3 -5 10 -6 15 -3 13 9 11 12 -6 12 -8 0 -12 -4 -9 -9z"/>
<path d="M7536 958 c3 -5 10 -6 15 -3 13 9 11 12 -6 12 -8 0 -12 -4 -9 -9z"/>
<path d="M7630 960 c0 -5 5 -10 11 -10 5 0 7 5 4 10 -3 6 -8 10 -11 10 -2 0
-4 -4 -4 -10z"/>
<path d="M2766 942 c-3 -5 1 -9 9 -9 8 0 12 4 9 9 -3 4 -7 8 -9 8 -2 0 -6 -4
-9 -8z"/>
<path d="M5130 940 c0 -5 5 -10 11 -10 5 0 7 5 4 10 -3 6 -8 10 -11 10 -2 0
-4 -4 -4 -10z"/>
<path d="M6335 940 c3 -5 8 -10 11 -10 2 0 4 5 4 10 0 6 -5 10 -11 10 -5 0 -7
-4 -4 -10z"/>
<path d="M6370 939 c0 -5 5 -7 10 -4 6 3 10 8 10 11 0 2 -4 4 -10 4 -5 0 -10
-5 -10 -11z"/>
<path d="M7290 939 c0 -5 5 -7 10 -4 6 3 10 8 10 11 0 2 -4 4 -10 4 -5 0 -10
-5 -10 -11z"/>
<path d="M7335 940 c3 -5 8 -10 11 -10 2 0 4 5 4 10 0 6 -5 10 -11 10 -5 0 -7
-4 -4 -10z"/>
<path d="M3310 920 c0 -5 5 -10 11 -10 5 0 7 5 4 10 -3 6 -8 10 -11 10 -2 0
-4 -4 -4 -10z"/>
<path d="M3566 922 c-3 -5 1 -9 9 -9 8 0 12 4 9 9 -3 4 -7 8 -9 8 -2 0 -6 -4
-9 -8z"/>
<path d="M5486 922 c-3 -5 1 -9 9 -9 8 0 12 4 9 9 -3 4 -7 8 -9 8 -2 0 -6 -4
-9 -8z"/>
<path d="M6195 920 c3 -5 8 -10 11 -10 2 0 4 5 4 10 0 6 -5 10 -11 10 -5 0 -7
-4 -4 -10z"/>
<path d="M7146 918 c3 -5 10 -6 15 -3 13 9 11 12 -6 12 -8 0 -12 -4 -9 -9z"/>
<path d="M7756 913 c-6 -14 -5 -15 5 -6 7 7 10 15 7 18 -3 3 -9 -2 -12 -12z"/>
<path d="M3230 880 c0 -5 5 -10 11 -10 5 0 7 5 4 10 -3 6 -8 10 -11 10 -2 0
-4 -4 -4 -10z"/>
<path d="M7460 880 c-9 -6 -10 -10 -3 -10 6 0 15 5 18 10 8 12 4 12 -15 0z"/>
<path d="M3355 809 c-4 -6 -5 -12 -2 -15 2 -3 7 2 10 11 7 17 1 20 -8 4z"/>
</g>
</svg>
